<?xml version="1.0" encoding="utf-8"?>
<!-- Generator: Adobe Illustrator 25.0.1, SVG Export Plug-In . SVG Version: 6.00 Build 0)  -->
<svg version="1.1" id="Ebene_1" xmlns="http://www.w3.org/2000/svg" xmlns:xlink="http://www.w3.org/1999/xlink" x="0px" y="0px"
	 viewBox="0 0 115.3 33.9" style="enable-background:new 0 0 115.3 33.9;" xml:space="preserve">
<style type="text/css">
	.st0{fill:#706F6F;stroke:#646363;stroke-width:0.25;}
	.st1{fill:#97271B;stroke:#7B2013;stroke-width:0.25;}
</style>
<g>
	<g>
		<path class="st0" d="M1.5,1.1h5.6V32H1.5V1.1z"/>
		<path class="st0" d="M34.5,22.4h-18c0.3,1.6,1,2.8,2.1,3.8c1.1,0.9,2.6,1.4,4.3,1.4c2.1,0,3.9-0.7,5.4-2.2l4.7,2.2
			c-1.2,1.7-2.6,2.9-4.2,3.7c-1.6,0.8-3.6,1.2-5.8,1.2c-3.5,0-6.4-1.1-8.6-3.3c-2.2-2.2-3.3-5-3.3-8.3c0-3.4,1.1-6.2,3.3-8.5
			c2.2-2.2,4.9-3.4,8.3-3.4c3.5,0,6.4,1.1,8.6,3.4s3.3,5.2,3.3,8.9L34.5,22.4z M28.9,18c-0.4-1.2-1.1-2.3-2.2-3
			c-1.1-0.8-2.4-1.2-3.8-1.2c-1.6,0-2.9,0.4-4.1,1.3c-0.7,0.5-1.4,1.5-2.1,2.9H28.9z"/>
		<path class="st0" d="M39.1,9.7h5.6V12c1.3-1.1,2.4-1.8,3.5-2.2c1-0.4,2.1-0.6,3.2-0.6c2.2,0,4.1,0.8,5.6,2.3
			c1.3,1.3,1.9,3.3,1.9,5.8V32h-5.5v-9.8c0-2.7-0.1-4.4-0.4-5.3c-0.2-0.9-0.7-1.5-1.2-2c-0.6-0.5-1.3-0.7-2.2-0.7
			c-1.1,0-2.1,0.4-2.9,1.1c-0.8,0.8-1.4,1.8-1.7,3.1c-0.2,0.7-0.2,2.2-0.2,4.5v9h-5.6V9.7z"/>
		<path class="st1" d="M86.1,14.2l-4.7,2.6c-0.9-0.9-1.7-1.6-2.6-1.9c-0.9-0.4-1.9-0.5-3-0.5c-2.1,0-3.8,0.6-5.1,1.9
			c-1.3,1.2-1.9,2.8-1.9,4.8c0,1.9,0.6,3.4,1.9,4.6c1.2,1.2,2.9,1.8,4.9,1.8c2.5,0,4.5-0.9,5.9-2.6l4.4,3c-2.4,3.1-5.8,4.7-10.1,4.7
			c-3.9,0-7-1.2-9.2-3.5c-2.2-2.3-3.3-5-3.3-8.2c0-2.2,0.5-4.1,1.6-6c1.1-1.8,2.6-3.2,4.5-4.3c1.9-1,4.1-1.6,6.5-1.6
			c2.2,0,4.2,0.4,6,1.3C83.5,11.3,85,12.6,86.1,14.2z"/>
		<path class="st0" d="M101.6,9.1c2.1,0,4.1,0.5,5.9,1.6c1.9,1.1,3.3,2.5,4.3,4.3c1,1.8,1.6,3.8,1.6,5.8c0,2.1-0.5,4.1-1.6,5.9
			c-1,1.8-2.5,3.3-4.3,4.3c-1.8,1-3.8,1.5-6,1.5c-3.2,0-5.9-1.1-8.2-3.4c-2.3-2.3-3.4-5-3.4-8.3c0-3.5,1.3-6.4,3.8-8.7
			C96.1,10.1,98.7,9.1,101.6,9.1z M101.7,14.4c-1.7,0-3.2,0.6-4.3,1.8c-1.2,1.2-1.7,2.8-1.7,4.6c0,1.9,0.6,3.5,1.7,4.7
			c1.1,1.2,2.6,1.8,4.3,1.8s3.2-0.6,4.4-1.8c1.2-1.2,1.7-2.8,1.7-4.7c0-1.9-0.6-3.5-1.7-4.7C105,15,103.5,14.4,101.7,14.4z"/>
	</g>
</g>
</svg>
